<?xml version="1.0" encoding="UTF-8"?>
<svg width="240" height="215" version="1.1" viewBox="0 0 480 430" xmlns="http://www.w3.org/2000/svg">
 <g transform="translate(86.202 -7.5985)">
  <g transform="translate(3.7985,3.7985)">
   <circle cx="150" cy="150" r="146.2" fill="#323296"/>
   <path transform="matrix(1.2698,0,0,1.2698,75.184,56.671)" d="m8.8394 128.48c-29.318-22.926-32.782-66.553-10.071-95.31 25.444-32.22 73.584-35.96 105.24-10.75 35.199 28.034 39.221 80.814 11.437 115.44-30.694 38.252-88.235 42.561-125.91 12.134-41.377-33.42-45.979-95.839-12.84-136.63 36.211-44.572 103.62-49.47 147.6-13.555 47.833 39.064 53.034 111.57 14.279 158.81-3.2681 3.983-6.8003 7.749-10.565 11.267" fill="none" stroke="#fff" stroke-width="6.3"/>
   <path transform="matrix(1.469 .24796 -.25366 1.5028 28.562 -64.998)" d="m124.61 114.96c0.30002 0.26385 38.773 7.1198 38.8 7.516 0.027 0.39623-35.829 16.404-36.103 16.698s-10.801 35.067-11.191 35.05c-0.38978-0.0171-14.586-34.226-14.886-34.474s-34.991-15.195-34.989-15.592c0.0019-0.3964 36.752-10.108 37.04-10.383 0.2882-0.27484 9.8474-37.459 10.254-37.458 0.40671 8.7e-4 10.775 38.379 11.075 38.642z" fill="#fff"/>
   <path transform="matrix(-.19492 .91622 -.97057 -.19966 235.73 125.26)" d="m124.61 114.96c0.30002 0.26385 38.773 7.1198 38.8 7.516 0.027 0.39623-35.829 16.404-36.103 16.698s-10.801 35.067-11.191 35.05c-0.38978-0.0171-14.586-34.226-14.886-34.474s-34.991-15.195-34.989-15.592c0.0019-0.3964 36.752-10.108 37.04-10.383 0.2882-0.27484 9.8474-37.459 10.254-37.458 0.40671 8.7e-4 10.775 38.379 11.075 38.642z" fill="#fff"/>
  </g>
 </g>
 <path d="m55.165 355.13c-4.9491-5.5836-12.056-8.2485-20.431-8.2485-19.289 0-34.136 13.705-34.136 35.151s14.847 35.151 34.136 35.151c9.1368 0 16.37-2.9187 21.319-8.883v7.8678h18.908v-94.16h-19.796zm-17.005 45.811c-9.8982 0-17.512-7.1064-17.512-18.908s7.614-18.908 17.512-18.908c9.7713 0 17.385 7.1064 17.385 18.908s-7.614 18.908-17.385 18.908zm104.82-45.811c-4.9491-5.5836-12.056-8.2485-20.431-8.2485-19.289 0-34.136 13.705-34.136 35.151s14.847 35.151 34.136 35.151c9.1368 0 16.37-2.9187 21.319-8.883v7.8678h18.908v-94.16h-19.796zm-17.005 45.811c-9.8982 0-17.512-7.1064-17.512-18.908s7.614-18.908 17.512-18.908c9.7713 0 17.385 7.1064 17.385 18.908s-7.614 18.908-17.385 18.908zm140.35 12.056c-1.3959 0.6345-3.5532 1.269-5.7105 1.269-5.4567 0-8.5023-3.1725-8.5023-9.1368v-54.059c0-18.527-10.786-30.075-31.725-30.075-19.67 0-31.217 10.913-31.979 28.426h-10.533v15.228h10.533v51.521h19.796v-51.521h17.005v-15.228h-17.005c0.1269-8.5023 4.5684-12.69 12.056-12.69 7.614 0 12.056 4.3146 12.056 13.071v56.597c0 15.228 9.1368 23.603 24.492 23.603 3.4263 0 6.8526-0.5076 10.406-1.6497zm54.694-57.866c-4.9491-5.5836-12.056-8.2485-20.431-8.2485-19.289 0-34.136 13.705-34.136 35.151s14.847 35.151 34.136 35.151c9.1368 0 16.37-2.9187 21.319-8.883v7.8678h18.908v-68.272h-19.796zm-17.005 45.811c-9.8982 0-17.512-7.1064-17.512-18.908s7.614-18.908 17.512-18.908c9.7713 0 17.385 7.1064 17.385 18.908s-7.614 18.908-17.385 18.908zm73.983-53.044h-18.908v68.272h19.796v-32.233c0-13.071 7.2333-19.035 18.147-19.035 1.5228 0 2.7918 0.1269 4.4415 0.2538v-18.274c-10.533 0-18.654 3.4263-23.476 10.025zm69.033 53.425c-8.883 0-15.228-3.4263-18.147-10.152l50.506-9.7713c-0.1269-21.827-15.989-34.517-35.278-34.517-21.065 0-36.547 14.72-36.547 35.151 0 20.304 15.355 35.151 38.958 35.151 12.309 0 21.827-3.807 28.172-11.04l-10.533-11.421c-4.6953 4.4415-9.8982 6.5988-17.132 6.5988zm-2.9187-39.466c8.2485 0 14.213 4.6953 16.116 11.675l-33.248 6.4719c0.3807-11.548 7.2333-18.147 17.132-18.147z" fill="#fff" stroke-dasharray="3.96573, 3.96573" stroke-width="3.9657" aria-label="ddflare"/>
</svg>
