<?xml version="1.0" encoding="UTF-8"?>
<svg width="500" height="500" version="1.1" viewBox="0 0 1250 1250" xmlns="http://www.w3.org/2000/svg">
 <g transform="translate(-276.97 -248.59)" fill="#333">
  <path d="m619.23 853.59c20.032-253.13 307.66-296.58 264.76-557.45 118.5 53.569 135.29 212.16 83.995 327.37-125.29 226.87-172.29 325.07-147.8 470.81 194.27-96.568 330.77-315.21 288.26-397.58-40.026 60.042-48.342 70.26-154.45 129.5 29.047-81.246 115.49-140.56 110.31-276.13 124.89 94.948 177.29 296.97 68.859 462.68-103.81 158.66-540.47 133.76-513.94-159.2z" fill="#333" stroke-width="1.6663"/>
 </g>
 <path d="m99.834 1189.8c24 0 43-7.6667 56-23.333v20.667h49.667v-247.33h-52v87c-13.333-14.667-31.667-21.667-53.667-21.667-50.667 0-89.667 36-89.667 92.333s39 92.333 89.667 92.333zm9-42.667c-26 0-46-18.667-46-49.667s20-49.667 46-49.667c25.667 0 45.667 18.667 45.667 49.667s-20 49.667-45.667 49.667zm216.67 42.667c24 0 43-7.6667 56-23.333v20.667h49.667v-247.33h-52v87c-13.333-14.667-31.667-21.667-53.667-21.667-50.667 0-89.667 36-89.667 92.333s39 92.333 89.667 92.333zm9-42.667c-26 0-46-18.667-46-49.667s20-49.667 46-49.667c25.667 0 45.667 18.667 45.667 49.667s-20 49.667-45.667 49.667zm139.67 40h52v-135.33h44.667v-40h-46v-7.6667c0-17.667 8.3333-26 23.667-26 8 0 15.333 2.3333 21 6.3333l13.667-37.667c-9.6666-6.6667-24.667-9.6666-39.667-9.6666-44.667 0-69.333 26.333-69.333 66.667zm185.33 2.6667c9 0 18-1.3334 27-4.3334l-2.3333-40.333c-3 1.6666-9 3.3333-14.667 3.3333-14.333 0-22.333-8.3333-22.333-23.667v-185h-52v188c0 40 24 62 64.333 62zm120.67 0c24 0 43-7.6667 56-23.333v20.667h49.667v-179.33h-52v19c-13.333-14.667-31.667-21.667-53.667-21.667-50.667 0-89.667 36-89.667 92.333s39 92.333 89.667 92.333zm9-42.667c-26 0-46-18.667-46-49.667s20-49.667 46-49.667c25.667 0 45.667 18.667 45.667 49.667s-20 49.667-45.667 49.667zm139.67 40h52v-84.667c0-34.333 19-50 47.667-50 4 0 7.3334 0.3333 11.667 0.6666v-48c-27.667 0-49 9-61.667 26.333v-23.667h-49.667zm224.67 2.6667c32.333 0 57.333-10 74-29l-27.667-30c-12.333 11.667-26 17.333-45 17.333-23.333 0-40-9-47.667-26.667l132.67-25.667c-0.3333-57.333-42-90.667-92.666-90.667-55.333 0-96 38.667-96 92.333 0 53.333 40.333 92.333 102.33 92.333zm-51.333-97.667c0.6667-30.333 19-47.667 45-47.667 21.333 0 37.333 12.333 42.333 30.667z" fill="#333" stroke-linecap="round" stroke-width="75" aria-label="ddflare"/>
</svg>
