<?xml version="1.0" encoding="UTF-8"?>
<svg width="240" height="215" version="1.1" viewBox="0 0 480 430" xmlns="http://www.w3.org/2000/svg">
 <g transform="translate(86.202 -7.5985)">
  <g transform="translate(3.7985,3.7985)">
   <circle cx="150" cy="150" r="146.2" fill="#323296"/>
   <path transform="matrix(1.2698,0,0,1.2698,75.184,56.671)" d="m8.8394 128.48c-29.318-22.926-32.782-66.553-10.071-95.31 25.444-32.22 73.584-35.96 105.24-10.75 35.199 28.034 39.221 80.814 11.437 115.44-30.694 38.252-88.235 42.561-125.91 12.134-41.377-33.42-45.979-95.839-12.84-136.63 36.211-44.572 103.62-49.47 147.6-13.555 47.833 39.064 53.034 111.57 14.279 158.81-3.2681 3.983-6.8003 7.749-10.565 11.267" fill="none" stroke="#fff" stroke-width="6.3"/>
   <path transform="matrix(1.469 .24796 -.25366 1.5028 28.562 -64.998)" d="m124.61 114.96c0.30002 0.26385 38.773 7.1198 38.8 7.516 0.027 0.39623-35.829 16.404-36.103 16.698s-10.801 35.067-11.191 35.05c-0.38978-0.0171-14.586-34.226-14.886-34.474s-34.991-15.195-34.989-15.592c0.0019-0.3964 36.752-10.108 37.04-10.383 0.2882-0.27484 9.8474-37.459 10.254-37.458 0.40671 8.7e-4 10.775 38.379 11.075 38.642z" fill="#fff"/>
   <path transform="matrix(-.19492 .91622 -.97057 -.19966 235.73 125.26)" d="m124.61 114.96c0.30002 0.26385 38.773 7.1198 38.8 7.516 0.027 0.39623-35.829 16.404-36.103 16.698s-10.801 35.067-11.191 35.05c-0.38978-0.0171-14.586-34.226-14.886-34.474s-34.991-15.195-34.989-15.592c0.0019-0.3964 36.752-10.108 37.04-10.383 0.2882-0.27484 9.8474-37.459 10.254-37.458 0.40671 8.7e-4 10.775 38.379 11.075 38.642z" fill="#fff"/>
  </g>
 </g>
 <text x="-3.7170682" y="416.16757" fill="#323296" font-family="Montserrat" font-size="126.9px" font-weight="bold" stroke-dasharray="3.96573, 3.96573" stroke-width="3.9657" xml:space="preserve"><tspan x="-3.7170682" y="416.16757" fill="#323296" font-family="'Montserrat Alternates'" font-size="126.9px" font-weight="bold" stroke-width="3.9657">ddflare</tspan></text>
</svg>
